<svg height="512pt" viewBox="-15 0 512 512.00013" width="512pt" xmlns="http://www.w3.org/2000/svg"><path d="m447.902344 256c0 114.324219-92.679688 207-207 207-114.324219 0-207-92.675781-207-207s92.675781-207 207-207c114.320312 0 207 92.675781 207 207zm0 0" fill="#f0c48a"/><path d="m431.394531 42.425781c-1.460937 0-2.921875-.519531-4.09375-1.566406-2.523437-2.261719-2.734375-6.140625-.472656-8.664063l22.136719-24.699218c1.160156-1.296875 2.824218-2.039063 4.566406-2.039063s3.40625.742188 4.566406 2.039063l22.136719 24.695312c2.261719 2.523438 2.050781 6.402344-.472656 8.664063-2.523438 2.261719-6.402344 2.050781-8.664063-.472657l-17.566406-19.601562-17.566406 19.601562c-1.210938 1.351563-2.890625 2.042969-4.570313 2.042969zm0 0" fill="#4c4372"/><path d="m453.53125 407.441406c-1.742188 0-3.40625-.742187-4.566406-2.039062l-22.136719-24.695313c-2.261719-2.523437-2.050781-6.402343.472656-8.664062 2.523438-2.261719 6.402344-2.050781 8.664063.472656l17.566406 19.597656 17.566406-19.601562c2.261719-2.523438 6.140625-2.734375 8.664063-.472657 2.523437 2.261719 2.734375 6.136719.472656 8.660157l-22.136719 24.699219c-1.160156 1.300781-2.824218 2.042968-4.566406 2.042968zm0 0" fill="#4c4372"/><path d="m452.902344 407.25c-3.390625 0-6-2.746094-6-6.132812v-389.554688c0-3.386719 2.609375-6.136719 6-6.136719 3.386718 0 6 2.746094 6 6.136719v389.554688c0 3.386718-2.613282 6.132812-6 6.132812zm0 0" fill="#4c4372"/><path d="m5.863281 438.285156h397.023438v67.851563h-397.023438zm0 0" fill="#a4cff2"/><path d="m335.4375 438.285156h67.449219v67.851563h-67.449219zm0 0" fill="#7babf1"/><path d="m402.886719 512h-397.023438c-3.238281 0-5.863281-2.625-5.863281-5.863281v-67.851563c0-3.238281 2.625-5.863281 5.863281-5.863281h397.023438c3.238281 0 5.863281 2.625 5.863281 5.863281v67.851563c0 3.238281-2.625 5.863281-5.863281 5.863281zm-391.160157-11.726562h385.296876v-56.125h-385.296876zm0 0" fill="#4c4372"/><path d="m54.226562 465.097656c-3.238281 0-5.863281-2.625-5.863281-5.863281v-19.972656c0-3.238281 2.625-5.863281 5.863281-5.863281 3.238282 0 5.863282 2.625 5.863282 5.863281v19.972656c0 3.238281-2.625 5.863281-5.863282 5.863281zm0 0" fill="#4c4372"/><path d="m129.300781 465.097656c-3.238281 0-5.863281-2.625-5.863281-5.863281v-19.972656c0-3.238281 2.625-5.863281 5.863281-5.863281s5.863281 2.625 5.863281 5.863281v19.972656c0 3.238281-2.625 5.863281-5.863281 5.863281zm0 0" fill="#4c4372"/><path d="m204.375 465.097656c-3.238281 0-5.863281-2.625-5.863281-5.863281v-19.972656c0-3.238281 2.625-5.863281 5.863281-5.863281s5.863281 2.625 5.863281 5.863281v19.972656c0 3.238281-2.625 5.863281-5.863281 5.863281zm0 0" fill="#4c4372"/><path d="m279.449219 465.097656c-3.238281 0-5.863281-2.625-5.863281-5.863281v-19.972656c0-3.238281 2.625-5.863281 5.863281-5.863281s5.863281 2.625 5.863281 5.863281v19.972656c0 3.238281-2.625 5.863281-5.863281 5.863281zm0 0" fill="#4c4372"/><path d="m354.523438 465.097656c-3.238282 0-5.863282-2.625-5.863282-5.863281v-19.972656c0-3.238281 2.625-5.863281 5.863282-5.863281 3.238281 0 5.863281 2.625 5.863281 5.863281v19.972656c0 3.238281-2.625 5.863281-5.863281 5.863281zm0 0" fill="#4c4372"/><path d="m5.863281 5.863281h397.023438v397.023438h-397.023438zm0 0" fill="#fd919e"/><path d="m337.789062 5.863281h65.097657v397.023438h-65.097657zm0 0" fill="#e8677d"/><g fill="#4c4372"><path d="m402.886719 408.75h-397.023438c-3.238281 0-5.863281-2.625-5.863281-5.863281v-397.023438c0-3.238281 2.625-5.863281 5.863281-5.863281h397.023438c3.238281 0 5.863281 2.625 5.863281 5.863281v397.023438c0 3.238281-2.625 5.863281-5.863281 5.863281zm-391.160157-11.726562h385.296876v-385.296876h-385.296876zm0 0"/><path d="m64.320312 408.75c-1.5 0-3-.574219-4.144531-1.71875l-58.457031-58.457031c-2.289062-2.289063-2.289062-6 0-8.289063 2.289062-2.289062 6-2.289062 8.289062 0l58.457032 58.457032c2.289062 2.289062 2.289062 6 0 8.289062-1.144532 1.144531-2.644532 1.71875-4.144532 1.71875zm0 0"/><path d="m147.554688 407.339844c-1.5 0-3.003907-.570313-4.148438-1.714844l-141.6875-141.691406c-2.289062-2.289063-2.289062-6 0-8.289063 2.289062-2.289062 6-2.289062 8.289062 0l141.691407 141.6875c2.289062 2.292969 2.289062 6.003907 0 8.292969-1.144531 1.144531-2.644531 1.714844-4.144531 1.714844zm0 0"/><path d="m232.195312 407.339844c-1.5 0-3-.570313-4.144531-1.714844l-226.332031-226.332031c-2.289062-2.289063-2.289062-6 0-8.292969 2.289062-2.289062 6-2.289062 8.289062 0l226.332032 226.332031c2.289062 2.292969 2.289062 6.003907 0 8.292969-1.144532 1.144531-2.644532 1.714844-4.144532 1.714844zm0 0"/><path d="m318.246094 408.75c-1.5 0-3.003906-.574219-4.144532-1.71875l-312.382812-312.382812c-2.289062-2.289063-2.289062-6 0-8.289063s6-2.289063 8.289062 0l312.382813 312.382813c2.289063 2.289062 2.289063 6 0 8.289062-1.144531 1.144531-2.644531 1.71875-4.144531 1.71875zm0 0"/><path d="m402.886719 408.75c-1.5 0-3-.574219-4.144531-1.71875l-397.023438-397.023438c-2.289062-2.289062-2.289062-6 0-8.289062s6-2.289062 8.289062 0l397.023438 397.023438c2.289062 2.289062 2.289062 6 0 8.289062-1.144531 1.144531-2.644531 1.71875-4.144531 1.71875zm0 0"/><path d="m402.886719 324.105469c-1.5 0-3-.570313-4.144531-1.714844l-312.382813-312.382813c-2.289063-2.289062-2.289063-6 0-8.289062 2.289063-2.292969 6.003906-2.289062 8.289063 0l312.382812 312.378906c2.289062 2.292969 2.289062 6.003906 0 8.292969-1.144531 1.144531-2.644531 1.714844-4.144531 1.714844zm0 0"/><path d="m402.886719 239.464844c-1.5 0-3-.570313-4.144531-1.714844l-227.742188-227.742188c-2.289062-2.289062-2.289062-6 0-8.289062s6.003906-2.289062 8.292969 0l227.738281 227.738281c2.289062 2.289063 2.289062 6 0 8.292969-1.144531 1.144531-2.644531 1.714844-4.144531 1.714844zm0 0"/><path d="m402.886719 154.824219c-1.5 0-3-.570313-4.144531-1.71875l-143.097657-143.097657c-2.292969-2.289062-2.292969-6 0-8.289062 2.289063-2.292969 6-2.289062 8.289063 0l143.097656 143.097656c2.289062 2.289063 2.289062 6 0 8.289063-1.144531 1.144531-2.644531 1.71875-4.144531 1.71875zm0 0"/><path d="m402.886719 70.183594c-1.5 0-3-.574219-4.144531-1.71875l-58.457032-58.457032c-2.289062-2.289062-2.289062-6 0-8.289062 2.289063-2.292969 6.003906-2.289062 8.289063 0l58.457031 58.457031c2.289062 2.289063 2.289062 6 0 8.289063-1.144531 1.144531-2.644531 1.71875-4.144531 1.71875zm0 0"/></g></svg>