<svg id="Layer_1" height="512" viewBox="0 0 128 128" width="512" xmlns="http://www.w3.org/2000/svg" data-name="Layer 1"><path d="m102.924 108.677-21.324-54.544a62.329 62.329 0 0 1 -4.279-22.7v-10.571h-26.64v10.575a62.329 62.329 0 0 1 -4.279 22.7l-21.326 54.54a6.1 6.1 0 0 0 5.682 8.323h66.484a6.1 6.1 0 0 0 5.682-8.323z" fill="#f7ecda"/><path d="m81.6 54.133a62.328 62.328 0 0 1 -4.279-22.7v-10.571h-13.321v96.138h33.242a6.1 6.1 0 0 0 5.682-8.323z" fill="#ecd6b2"/><path d="m102.924 108.677-20.824-53.265c-7.256-1.253-15.653-.038-25.036 2.76-5.036 1.5-9.055 1.116-12.2-.1l-19.788 50.605a6.1 6.1 0 0 0 5.682 8.323h66.484a6.1 6.1 0 0 0 5.682-8.323z" fill="#1db6bc"/><path d="m97.24 117h-33.24v-60.63c6.63-1.45 12.68-1.89 18.1-.96l2.77 7.08 1.37 3.5 2.65 6.8 1.37 3.5 2.66 6.81 1.37 3.5 2.66 6.81 1.37 3.5 2.66 6.81 1.37 3.5.57 1.46a6.094 6.094 0 0 1 -5.68 8.32z" fill="#17799b"/><path d="m46.796 11h34.408v9.862h-34.408z" fill="#606de0"/><path d="m49.355 68.467a1.75 1.75 0 0 0 -2.255 1.02l-13.6 36.074a1.75 1.75 0 1 0 3.275 1.234l13.6-36.074a1.75 1.75 0 0 0 -1.02-2.254z" fill="#f7ecda"/><g fill="#1db6bc"><path d="m86.24 65.99h-9.06a1.75 1.75 0 1 1 0-3.5h7.69z"/><path d="m90.26 76.29h-9.49a1.75 1.75 0 0 1 0-3.5h8.12z"/><path d="m94.29 86.6h-9.34a1.75 1.75 0 0 1 0-3.5h7.97z"/><path d="m98.32 96.91h-10.06a1.75 1.75 0 1 1 0-3.5h8.69z"/><path d="m102.35 107.22h-9.91a1.75 1.75 0 0 1 0-3.5h8.54z"/></g><path d="m64 11h17.204v9.862h-17.204z" fill="#3647d7"/></svg>