<?xml version="1.0" encoding="iso-8859-1"?>
<!-- Generator: Adobe Illustrator 19.0.0, SVG Export Plug-In . SVG Version: 6.00 Build 0)  -->
<svg version="1.1" id="Layer_1" xmlns="http://www.w3.org/2000/svg" xmlns:xlink="http://www.w3.org/1999/xlink" x="0px" y="0px"
	 viewBox="0 0 512 512" style="enable-background:new 0 0 512 512;" xml:space="preserve">
<g>
	<polygon style="fill:#E09B2D;" points="416.609,247.937 303.691,487.555 288.904,376.152 303.691,264.044 416.155,24.244 
		440.73,177.848 	"/>
	<polygon style="fill:#E09B2D;" points="232.439,177.848 208.316,247.934 191.848,282.875 95.393,487.557 80.603,376.155 
		95.393,264.04 191.848,58.381 207.857,24.249 	"/>
</g>
<g>
	<polygon style="fill:#B27214;" points="232.439,177.848 208.316,247.934 191.848,282.875 207.857,24.249 	"/>
	<polygon style="fill:#B27214;" points="441.189,177.848 417.066,247.934 400.598,282.875 416.607,24.249 	"/>
</g>
<g>
	<path style="fill:#F7B239;" d="M0,22.39v467.22h95.393V22.39H0z M28.53,77.59c-5.18,0-9.369-4.189-9.369-9.369
		s4.189-9.369,9.369-9.369c5.167,0,9.369,4.189,9.369,9.369S33.697,77.59,28.53,77.59z M66.875,77.59
		c-5.18,0-9.369-4.189-9.369-9.369s4.189-9.369,9.369-9.369c5.18,0,9.369,4.189,9.369,9.369S72.055,77.59,66.875,77.59z"/>
	<rect x="208.304" y="22.391" style="fill:#F7B239;" width="95.393" height="467.22"/>
	<path style="fill:#F7B239;" d="M416.607,22.39v467.22H512V22.39H416.607z M445.125,452.628c-5.167,0-9.369-4.202-9.369-9.369
		c0-5.18,4.202-9.381,9.369-9.381c5.18,0,9.381,4.202,9.381,9.381C454.506,448.426,450.305,452.628,445.125,452.628z
		 M483.482,452.628c-5.18,0-9.381-4.202-9.381-9.369c0-5.18,4.202-9.381,9.381-9.381c5.167,0,9.369,4.202,9.369,9.381
		C492.851,448.426,488.65,452.628,483.482,452.628z"/>
</g>
<g>
	<rect x="0.005" y="434.803" style="fill:#995C0D;" width="55.099" height="18.11"/>
	<rect x="0.005" y="387.837" style="fill:#995C0D;" width="55.099" height="18.11"/>
	<rect x="0.005" y="340.871" style="fill:#995C0D;" width="55.099" height="18.11"/>
	<rect x="0.005" y="293.917" style="fill:#995C0D;" width="55.099" height="18.11"/>
	<rect x="0.005" y="246.939" style="fill:#995C0D;" width="55.099" height="18.11"/>
	<rect x="0.005" y="199.986" style="fill:#995C0D;" width="55.099" height="18.11"/>
	<rect x="0.005" y="153.02" style="fill:#995C0D;" width="55.099" height="18.11"/>
</g>
<rect x="0.005" y="106.054" style="fill:#666666;" width="95.393" height="18.11"/>
<g>
	<rect x="208.304" y="434.803" style="fill:#995C0D;" width="55.099" height="18.11"/>
	<rect x="208.304" y="387.837" style="fill:#995C0D;" width="55.099" height="18.11"/>
	<rect x="208.304" y="340.871" style="fill:#995C0D;" width="55.099" height="18.11"/>
	<rect x="208.304" y="293.917" style="fill:#995C0D;" width="55.099" height="18.11"/>
	<rect x="208.304" y="246.939" style="fill:#995C0D;" width="55.099" height="18.11"/>
	<rect x="208.304" y="199.986" style="fill:#995C0D;" width="55.099" height="18.11"/>
	<rect x="208.304" y="153.02" style="fill:#995C0D;" width="55.099" height="18.11"/>
	<rect x="208.304" y="106.054" style="fill:#995C0D;" width="55.099" height="18.11"/>
	<rect x="208.304" y="59.085" style="fill:#995C0D;" width="55.099" height="18.11"/>
</g>
<rect x="416.607" y="387.837" style="fill:#666666;" width="95.393" height="18.11"/>
<g>
	<rect x="416.607" y="340.871" style="fill:#995C0D;" width="55.099" height="18.11"/>
	<rect x="416.607" y="293.917" style="fill:#995C0D;" width="55.099" height="18.11"/>
	<rect x="416.607" y="246.939" style="fill:#995C0D;" width="55.099" height="18.11"/>
	<rect x="416.607" y="199.986" style="fill:#995C0D;" width="55.099" height="18.11"/>
	<rect x="416.607" y="153.02" style="fill:#995C0D;" width="55.099" height="18.11"/>
	<rect x="416.607" y="106.054" style="fill:#995C0D;" width="55.099" height="18.11"/>
	<rect x="416.607" y="59.085" style="fill:#995C0D;" width="55.099" height="18.11"/>
</g>
<g>
</g>
<g>
</g>
<g>
</g>
<g>
</g>
<g>
</g>
<g>
</g>
<g>
</g>
<g>
</g>
<g>
</g>
<g>
</g>
<g>
</g>
<g>
</g>
<g>
</g>
<g>
</g>
<g>
</g>
</svg>
