<svg id="Layer_3" enable-background="new 0 0 64 64" height="512" viewBox="0 0 64 64" width="512" xmlns="http://www.w3.org/2000/svg"><circle cx="32" cy="32" fill="#868992" r="30"/><circle cx="32" cy="32" fill="#d1f2fd" r="24"/><path d="m22 41h4v8h-4z" fill="#5f9747"/><path d="m26 41h4v8h-4z" fill="#7ec95f"/><path d="m30 41h4v8h-4z" fill="#5f9747"/><path d="m34 41h4v8h-4z" fill="#7ec95f"/><path d="m38 41h4v8h-4z" fill="#5f9747"/><path d="m56 32h-6c0-9.941-8.059-18-18-18s-18 8.059-18 18h-6c0-13.255 10.745-24 24-24s24 10.745 24 24z" fill="#f2a348"/><path d="m15 15 4.272 4.272c-3.257 3.257-5.272 7.757-5.272 12.728h-6c0-6.612 2.674-12.6 7-16.941" fill="#ed6863"/><path d="m56 32c0-6.642-2.699-12.655-7.059-17h.059l-4.272 4.272c3.257 3.257 5.272 7.757 5.272 12.728z" fill="#ed6863"/><path d="m28 35 2 2h4l2-2-4-16z" fill="#868992"/><path d="" fill="none"/></svg>